<svg xmlns:dc="http://purl.org/dc/elements/1.1/" xmlns:cc="http://creativecommons.org/ns#" xmlns:rdf="http://www.w3.org/1999/02/22-rdf-syntax-ns#" xmlns:svg="http://www.w3.org/2000/svg" xmlns="http://www.w3.org/2000/svg" id="svg430239" viewBox="0 0 1024 768" height="768px" width="1024px" version="1.1">
  <metadata id="metadata430245">
    <rdf:rdf>
      <cc:work rdf:about="">
        <dc:format>image/svg+xml</dc:format>
        <dc:type rdf:resource="http://purl.org/dc/dcmitype/StillImage"></dc:type>
      </cc:work>
    </rdf:rdf>
  </metadata>
  <defs id="defs430243"></defs>
  <g id="logo-group">
    <g id="logo-center" transform="translate(139.0167187500001 0)">
      <g id="slogan" style="font-style:normal;font-weight:800;font-size:32px;line-height:1;font-family:MontserratExtraBoldAlt1;font-variant-ligatures:none;text-align:center;text-anchor:middle" transform="translate(0 0)"></g>
      <g id="title" style="font-style:normal;font-weight:800;font-size:72px;line-height:1;font-family:MontserratExtraBoldAlt1;font-variant-ligatures:normal;text-align:center;text-anchor:middle" transform="translate(0 0)">
        <path id="path430248" style="font-style:normal;font-weight:800;font-size:72px;line-height:1;font-family:MontserratExtraBoldAlt1;font-variant-ligatures:normal;text-align:center;text-anchor:middle" d="m 329.51656,0 h 13.968 v -8.496 l -13.968,-17.784 z m 33.984,-50.4 v 9.144 l 13.968,16.848 V -50.4 Z m 0,26.856 -22.248,-26.856 h -11.736 v 6.696 l 13.968,16.848 22.248,26.856 h 11.736 v -5.832 l -13.968,-17.784 z" stroke-width="0" stroke-linejoin="miter" stroke-miterlimit="2" fill="#3494c4" stroke="#3494c4" transform="translate(0 326.755) translate(50 15.223999999999997) scale(1.75) translate(-329.51656 50.4)"></path>
        <path id="path430250" style="font-style:normal;font-weight:800;font-size:72px;line-height:1;font-family:MontserratExtraBoldAlt1;font-variant-ligatures:normal;text-align:center;text-anchor:middle" d="m 395.22669,-1.944 c 3.312,1.728 7.128,2.592 11.304,2.592 4.176,0 7.992,-0.864 11.376,-2.592 3.312,-1.728 5.976,-4.104 7.848,-7.2 1.872,-3.024 2.808,-6.552 2.808,-10.44 0,-3.888 -0.936,-7.344 -2.808,-10.368 -1.872,-3.024 -4.536,-5.4 -7.848,-7.128 -3.384,-1.728 -7.2,-2.592 -11.376,-2.592 -4.248,0 -8.064,0.864 -11.376,2.592 -3.312,1.728 -5.976,4.104 -7.848,7.128 -1.872,3.096 -2.808,6.552 -2.808,10.368 0,3.888 0.936,7.416 2.808,10.44 1.872,3.096 4.536,5.472 7.92,7.2 z m 17.208,-10.728 c -1.584,1.656 -3.528,2.448 -5.904,2.448 -2.448,0 -4.392,-0.792 -5.904,-2.448 -1.584,-1.656 -2.304,-3.96 -2.304,-6.912 0,-2.88 0.72,-5.112 2.304,-6.768 1.512,-1.584 3.456,-2.448 5.904,-2.448 2.376,0 4.32,0.864 5.904,2.448 1.512,1.656 2.304,3.888 2.304,6.768 0,2.952 -0.792,5.256 -2.304,6.912 z" stroke-width="0" stroke-linejoin="miter" stroke-miterlimit="2" fill="#3494c4" stroke="#3494c4" transform="translate(0 326.755) translate(146.21872749999997 33.99800000000001) scale(1.75) translate(-384.49869 39.672)"></path>
        <path id="path430252" style="font-style:normal;font-weight:800;font-size:72px;line-height:1;font-family:MontserratExtraBoldAlt1;font-variant-ligatures:normal;text-align:center;text-anchor:middle" d="m 443.17981,-1.944 c 3.312,1.728 7.128,2.592 11.304,2.592 4.176,0 7.992,-0.864 11.376,-2.592 3.312,-1.728 5.976,-4.104 7.848,-7.2 1.872,-3.024 2.808,-6.552 2.808,-10.44 0,-3.888 -0.936,-7.344 -2.808,-10.368 -1.872,-3.024 -4.536,-5.4 -7.848,-7.128 -3.384,-1.728 -7.2,-2.592 -11.376,-2.592 -4.248,0 -8.064,0.864 -11.376,2.592 -3.312,1.728 -5.976,4.104 -7.848,7.128 -1.872,3.096 -2.808,6.552 -2.808,10.368 0,3.888 0.936,7.416 2.808,10.44 1.872,3.096 4.536,5.472 7.92,7.2 z m 17.208,-10.728 c -1.584,1.656 -3.528,2.448 -5.904,2.448 -2.448,0 -4.392,-0.792 -5.904,-2.448 -1.584,-1.656 -2.304,-3.96 -2.304,-6.912 0,-2.88 0.72,-5.112 2.304,-6.768 1.512,-1.584 3.456,-2.448 5.904,-2.448 2.376,0 4.32,0.864 5.904,2.448 1.512,1.656 2.304,3.888 2.304,6.768 0,2.952 -0.792,5.256 -2.304,6.912 z" stroke-width="0" stroke-linejoin="miter" stroke-miterlimit="2" fill="#3494c4" stroke="#3494c4" transform="translate(0 326.755) translate(230.13668749999994 33.99800000000001) scale(1.75) translate(-432.45181 39.672)"></path>
        <path id="path430254" style="font-style:normal;font-weight:800;font-size:72px;line-height:1;font-family:MontserratExtraBoldAlt1;font-variant-ligatures:normal;text-align:center;text-anchor:middle" d="M 500.56494,-13.68 511.50894,0 h 16.56 l -17.568,-22.32 16.2,-16.704 h -16.2 l -13.968,13.608 v -28.008 h -13.68 V 0 h 13.68 v -9.576 z" stroke-width="0" stroke-linejoin="miter" stroke-miterlimit="2" fill="#3494c4" stroke="#3494c4" transform="translate(0 326.755) translate(318.3386649999999 9.931999999999995) scale(1.75) translate(-482.85294 53.424)"></path>
        <path id="path430256" style="font-style:normal;font-weight:800;font-size:72px;line-height:1;font-family:MontserratExtraBoldAlt1;font-variant-ligatures:normal;text-align:center;text-anchor:middle" d="m 575.55631,-41.616 c -1.872,-2.808 -4.464,-4.968 -7.776,-6.48 -3.384,-1.512 -7.344,-2.304 -11.88,-2.304 h -23.04 v 11.232 h 22.176 c 2.88,0 5.112,0.648 6.624,1.944 1.44,1.296 2.232,3.168 2.232,5.472 0,2.376 -0.792,4.176 -2.232,5.472 -1.512,1.296 -3.744,1.872 -6.624,1.872 h -22.176 V 0 h 14.256 v -13.176 h 8.784 c 4.536,0 8.496,-0.72 11.88,-2.232 3.312,-1.512 5.904,-3.672 7.776,-6.48 1.8,-2.736 2.736,-6.048 2.736,-9.864 0,-3.744 -0.936,-7.056 -2.736,-9.864 z" stroke-width="0" stroke-linejoin="miter" stroke-miterlimit="2" fill="#eee5f0" stroke="#eee5f0" transform="translate(0 326.755) translate(405.8515624999999 15.223999999999997) scale(1.75) translate(-532.86031 50.4)"></path>
        <path id="path430258" style="font-style:normal;font-weight:800;font-size:72px;line-height:1;font-family:MontserratExtraBoldAlt1;font-variant-ligatures:normal;text-align:center;text-anchor:middle" d="m 592.66419,-1.944 c 3.312,1.728 7.128,2.592 11.304,2.592 4.176,0 7.992,-0.864 11.376,-2.592 3.312,-1.728 5.976,-4.104 7.848,-7.2 1.872,-3.024 2.808,-6.552 2.808,-10.44 0,-3.888 -0.936,-7.344 -2.808,-10.368 -1.872,-3.024 -4.536,-5.4 -7.848,-7.128 -3.384,-1.728 -7.2,-2.592 -11.376,-2.592 -4.248,0 -8.064,0.864 -11.376,2.592 -3.312,1.728 -5.976,4.104 -7.848,7.128 -1.872,3.096 -2.808,6.552 -2.808,10.368 0,3.888 0.936,7.416 2.808,10.44 1.872,3.096 4.536,5.472 7.92,7.2 z m 17.208,-10.728 c -1.584,1.656 -3.528,2.448 -5.904,2.448 -2.448,0 -4.392,-0.792 -5.904,-2.448 -1.584,-1.656 -2.304,-3.96 -2.304,-6.912 0,-2.88 0.72,-5.112 2.304,-6.768 1.512,-1.584 3.456,-2.448 5.904,-2.448 2.376,0 4.32,0.864 5.904,2.448 1.512,1.656 2.304,3.888 2.304,6.768 0,2.952 -0.792,5.256 -2.304,6.912 z" stroke-width="0" stroke-linejoin="miter" stroke-miterlimit="2" fill="#eee5f0" stroke="#eee5f0" transform="translate(0 326.755) translate(491.7343524999998 33.99800000000001) scale(1.75) translate(-581.93619 39.672)"></path>
        <path id="path430260" style="font-style:normal;font-weight:800;font-size:72px;line-height:1;font-family:MontserratExtraBoldAlt1;font-variant-ligatures:normal;text-align:center;text-anchor:middle" d="m 636.87331,-0.432 c 3.168,0.72 6.336,1.08 9.648,1.08 4.032,0 7.56,-0.504 10.44,-1.656 2.88,-1.08 5.112,-2.592 6.624,-4.536 1.44,-1.944 2.232,-4.176 2.232,-6.624 0,-2.952 -0.792,-5.256 -2.376,-6.912 -1.584,-1.656 -3.384,-2.808 -5.472,-3.456 -2.16,-0.576 -4.824,-1.152 -7.992,-1.656 -2.592,-0.36 -4.392,-0.72 -5.472,-1.08 -1.152,-0.36 -1.656,-1.008 -1.656,-1.944 0,-0.792 0.504,-1.44 1.512,-1.944 1.008,-0.504 2.592,-0.792 4.752,-0.792 4.032,0 7.776,1.008 11.232,2.88 l 4.104,-9.288 c -1.872,-1.008 -4.248,-1.872 -6.984,-2.448 -2.808,-0.576 -5.616,-0.864 -8.424,-0.864 -4.032,0 -7.416,0.576 -10.296,1.728 -2.88,1.152 -5.04,2.664 -6.48,4.608 -1.512,1.944 -2.232,4.176 -2.232,6.624 0,3.024 0.792,5.4 2.376,7.056 1.584,1.728 3.456,2.88 5.616,3.456 2.16,0.648 4.824,1.152 7.992,1.512 2.448,0.36 4.176,0.72 5.328,1.08 1.152,0.36 1.728,0.936 1.728,1.8 0,0.864 -0.504,1.584 -1.44,2.016 -0.936,0.432 -2.52,0.648 -4.68,0.648 -2.448,0 -4.824,-0.288 -7.272,-0.936 -2.448,-0.648 -4.608,-1.512 -6.336,-2.664 l -4.104,9.36 c 1.872,1.224 4.464,2.232 7.632,2.952 z" stroke-width="0" stroke-linejoin="miter" stroke-miterlimit="2" fill="#eee5f0" stroke="#eee5f0" transform="translate(0 326.755) translate(574.5183124999998 33.99800000000001) scale(1.75) translate(-629.24131 39.672)"></path>
        <path id="path430262" style="font-style:normal;font-weight:800;font-size:72px;line-height:1;font-family:MontserratExtraBoldAlt1;font-variant-ligatures:normal;text-align:center;text-anchor:middle" d="m 698.64031,-1.584 -3.384,-9.576 c -1.224,0.864 -2.592,1.224 -4.176,1.224 -1.296,0 -2.304,-0.36 -3.024,-1.152 -0.72,-0.792 -1.08,-1.872 -1.08,-3.312 v -12.96 h 8.928 v -10.224 h -8.928 v -10.152 h -13.68 v 10.152 h -5.688 v 10.224 h 5.688 v 13.104 c 0,4.968 1.368,8.712 4.104,11.16 2.736,2.52 6.624,3.744 11.736,3.744 1.872,0 3.6,-0.144 5.256,-0.576 1.656,-0.36 3.096,-0.936 4.248,-1.656 z" stroke-width="0" stroke-linejoin="miter" stroke-miterlimit="2" fill="#eee5f0" stroke="#eee5f0" transform="translate(0 326.755) translate(641.6605624999997 19.886000000000003) scale(1.75) translate(-667.60831 47.736)"></path>
      </g>
    </g>
  </g>
</svg>
